<svg width="90" height="96" viewBox="0 0 90 96" fill="none" xmlns="http://www.w3.org/2000/svg">
<g filter="url(#filter0_d_30_112)">
<path d="M20.0937 71.4017C18.4713 69.32 16.4434 65.0987 12.909 59.8365C10.881 56.9452 5.8981 51.4517 4.39163 48.6183C3.30564 46.8964 2.99052 44.7997 3.52251 42.8356C4.43195 39.1013 7.98144 36.6241 11.8081 37.053C14.7677 37.6464 17.4876 39.0941 19.6302 41.2165C21.1261 42.6227 22.5021 44.1507 23.744 45.7848C24.671 46.9413 24.9028 47.4039 25.9457 48.7339C26.9887 50.0639 27.684 51.3939 27.1625 49.4278C26.7569 46.5365 26.0616 41.6791 25.0766 37.3422C24.3234 34.0461 24.1496 33.5256 23.4543 31.0391C22.759 28.5526 22.3534 26.4709 21.6002 23.6374C20.9116 20.8535 20.3701 18.0354 19.9778 15.1948C19.2475 11.5616 19.7788 7.78849 21.4843 4.49695C23.5087 2.59661 26.4784 2.09504 29.0166 3.22478C31.5695 5.10607 33.4729 7.7332 34.4631 10.7422C35.9815 14.4453 36.9949 18.3351 37.476 22.3074C38.4031 28.09 40.1993 36.5326 40.2572 38.2674C40.2572 36.1278 39.8516 31.6174 40.2572 29.5935C40.6591 27.4835 42.1285 25.7325 44.1393 24.9674C45.8648 24.439 47.6902 24.3202 49.4699 24.6204C51.2663 24.9952 52.8575 26.0264 53.9313 27.5117C55.2737 30.8853 56.0187 34.4659 56.1331 38.0939C56.2883 34.9169 56.8331 31.7708 57.7555 28.7261C58.7237 27.3646 60.1376 26.3829 61.7534 25.9504C63.6689 25.6009 65.632 25.6009 67.5475 25.9504C69.1183 26.4745 70.4923 27.4627 71.4875 28.7839C72.7145 31.8507 73.4573 35.0889 73.6893 38.383C73.6893 39.1926 74.0949 36.1278 75.3696 34.1039C76.032 32.1413 77.6932 30.6804 79.7275 30.2716C81.7618 29.8628 83.86 30.5682 85.2319 32.1221C86.6038 33.6759 87.0408 35.8421 86.3784 37.8048C86.3784 41.5635 86.3784 41.39 86.3784 43.9343C86.3784 46.4787 86.3784 48.7339 86.3784 50.8735C86.1673 54.2573 85.7024 57.6207 84.9878 60.9352C83.9795 63.8677 82.576 66.6496 80.816 69.2043C78.0027 72.3267 75.6781 75.8554 73.921 79.6709C73.4851 81.5664 73.2904 83.5093 73.3416 85.4535C73.3358 87.2497 73.5696 89.0388 74.0369 90.7735C71.6679 91.0234 69.2791 91.0234 66.9102 90.7735C64.6505 90.4265 61.8693 85.9161 61.116 84.5283C60.7433 83.7831 59.9806 83.3122 59.146 83.3122C58.3115 83.3122 57.5487 83.7831 57.176 84.5283C55.9013 86.7256 53.0622 90.7156 51.0922 90.9469C47.2102 91.4096 39.2143 90.9469 32.8987 90.9469C32.8987 90.9469 33.9416 85.1643 31.566 83.0826C29.1905 81.0009 26.7569 78.5722 24.9607 76.953L20.0937 71.4017Z" fill="white"/>
<path fill-rule="evenodd" clip-rule="evenodd" d="M88.5474 51.0082C88.5516 47.6063 88.5516 47.6063 88.5516 43.9343V38.1315C89.2915 35.5341 88.6628 32.7275 86.8626 30.6885C84.9775 28.5534 82.0943 27.5841 79.2991 28.1458C77.3946 28.5285 75.7281 29.5823 74.5714 31.068C74.266 30.0205 73.9106 28.9914 73.5058 27.9798C71.9649 25.8083 70.2254 24.5573 68.2369 23.8938C65.7649 23.4206 63.5369 23.4206 61.3631 23.8173C59.1877 24.3925 57.4095 25.5855 56.1555 27.2377C56.0889 27.0617 56.0208 26.8863 55.9512 26.7114C54.3028 24.319 52.2418 22.9833 49.9149 22.4978C47.7191 22.1258 45.5515 22.2668 43.5024 22.8943C42.1858 23.3929 41.0541 24.1652 40.1638 25.1326C39.9496 23.9368 39.7722 22.902 39.622 21.9648C39.1291 17.8822 38.0666 13.8036 36.4745 9.92087C35.397 6.62915 33.2232 3.62885 30.3077 1.48033C26.564 -0.241424 22.6584 0.4182 19.9961 2.91739L19.5547 3.5009C17.6224 7.23015 17.0205 11.505 17.8479 15.6213C18.2285 18.4067 18.7844 21.2994 19.4911 24.157C19.8186 25.3903 19.8201 25.3963 20.5128 28.294L20.5134 28.2964C20.602 28.6661 20.6022 28.6669 20.6924 29.0392C20.9282 30.0084 21.1344 30.8083 21.3619 31.622C21.7511 33.0053 21.9015 33.5409 22.0314 34.0213C22.0507 34.0929 22.0604 34.1288 22.07 34.1646C22.0797 34.2006 22.0893 34.2366 22.1085 34.3087C22.3472 35.2074 22.582 36.1759 22.9587 37.8243C23.3041 39.3451 23.6084 40.8731 23.9006 42.5328C23.0302 41.5281 22.0995 40.5584 21.1203 39.638C18.7167 37.2559 15.6134 35.604 12.2365 34.927C7.1373 34.3473 2.57944 37.5283 1.41163 42.3235C0.735129 44.8184 1.14404 47.5391 2.55323 49.7734C3.22174 51.0434 4.51738 52.7882 6.81984 55.6362L6.82039 55.6369C6.99901 55.8577 6.9992 55.8579 7.17812 56.0785C9.85088 59.3717 10.3317 59.9634 10.7767 60.5809C10.8858 60.7323 10.9928 60.8853 11.1294 61.0801C11.968 62.329 13.4385 64.7494 14.8564 67.0834C16.4417 69.6928 17.9613 72.1942 18.4589 72.8297L23.326 78.381C23.9626 78.9683 25.6525 80.5645 26.8118 81.6594C27.3831 82.199 27.8255 82.6169 27.9494 82.7322C28.5109 83.255 29.0263 83.7269 29.5207 84.1696C29.8263 84.4424 29.8264 84.4425 30.1325 84.7117L30.1329 84.7121C30.479 85.0154 30.7694 85.7743 30.8911 86.883C30.9943 87.8238 30.966 88.8733 30.8537 89.8801C30.8166 90.212 30.781 90.4503 30.7607 90.5628C30.5208 91.8928 31.5451 93.1154 32.8991 93.1154C34.4586 93.1154 36.0685 93.1407 38.6278 93.1978L39.5108 93.2177C46.4439 93.3751 49.043 93.3751 51.3503 93.1001C53.9873 92.7905 56.7924 89.5184 59.1724 85.4967C61.1964 89.2285 63.7962 92.4893 66.5802 92.9167C69.203 93.1959 71.7449 93.1959 74.2658 92.9299C75.5942 92.7898 76.4825 91.4979 76.1357 90.2105C75.7184 88.6617 75.5097 87.0643 75.5149 85.4605C75.4677 83.6346 75.6441 81.8738 76.0392 80.156C77.5614 76.9594 79.7651 73.6143 82.4321 70.6543C84.4786 67.716 85.9711 64.7576 87.0434 61.6391C87.8499 57.9709 88.3296 54.5002 88.5474 51.0082ZM30.1275 78.8199C28.9968 77.7526 27.022 75.8886 26.4176 75.3438L21.7801 70.032C21.4408 69.5727 20.3375 67.7498 19.0561 65.6325C17.5326 63.1153 15.7572 60.1819 14.7142 58.6291C14.2307 57.9389 13.6341 57.1608 12.8201 56.143C12.5038 55.7474 12.2778 55.4678 11.7107 54.7695L11.7054 54.7631C11.1358 54.0632 11.134 54.0611 10.555 53.3488C10.4664 53.2396 10.4222 53.1851 10.378 53.1306C10.334 53.0762 10.2899 53.0217 10.2019 52.9129C8.08903 50.2994 6.87999 48.6713 6.31141 47.6019C5.46814 46.2537 5.24681 44.7811 5.62047 43.4015C6.28536 40.6743 8.82647 38.9009 11.566 39.208C13.923 39.6888 16.2595 40.9324 18.0999 42.7556C19.549 44.1187 20.8443 45.5571 22.0133 47.0952C22.376 47.5489 22.604 47.8535 22.9626 48.355C23.5796 49.2187 23.7556 49.4589 24.2351 50.0704C24.2692 50.1139 24.3615 50.2385 24.4832 50.4031C24.8181 50.8556 25.3761 51.6095 25.5603 51.8045C25.787 52.0922 25.787 52.0922 26.9425 52.5648C29.422 51.6529 29.4358 51.6326 29.5081 50.4702C29.5365 50.0134 29.4574 49.6045 29.2634 48.8729C28.6013 44.0411 28.0144 40.4658 27.1961 36.8628C26.8085 35.1664 26.5626 34.1521 26.309 33.1975L26.3088 33.1966C26.268 33.0435 26.2679 33.0432 26.2268 32.8909C26.0906 32.3873 25.9336 31.8279 25.5475 30.4562C25.3348 29.6953 25.1403 28.9409 24.9152 28.0157C24.8715 27.8354 24.8496 27.7448 24.8277 27.6541C24.8057 27.5627 24.7838 27.4712 24.7398 27.2874C24.0357 24.3425 24.0326 24.3297 23.7007 23.0813C23.0398 20.4075 22.5126 17.6641 22.1307 14.8987C21.5022 11.7526 21.9002 8.61488 23.2381 5.8458C24.6106 4.73676 26.5014 4.47941 28.1321 5.20523C29.9167 6.58329 31.5497 8.83724 32.3992 11.4188C33.8974 15.0869 34.8616 18.788 35.3194 22.5676C35.5707 24.145 35.8743 25.8645 36.2801 28.0562C36.3702 28.5421 36.3703 28.5424 36.4605 29.0261L36.4607 29.027C38.0505 37.5395 38.0614 37.6003 38.0861 38.3396C38.181 41.1816 42.4305 41.1109 42.4305 38.2674C42.4305 37.641 42.4183 37.3049 42.3384 35.4255C42.3072 34.6842 42.2949 34.3681 42.2809 33.9352C42.2192 32.0152 42.2499 30.7092 42.3883 30.0187C42.6532 28.6279 43.6077 27.4906 44.9138 26.9936C46.1791 26.6112 47.6622 26.5146 49.1082 26.7586C50.2916 27.0072 51.413 27.7339 52.1698 28.7806C53.1619 31.4522 53.8554 34.7851 53.9618 38.1621C54.0494 40.9384 58.1683 40.9739 58.3038 38.1995C58.4441 35.3266 58.9218 32.4806 59.7269 29.7198C60.3903 28.9057 61.2957 28.3182 62.3167 28.0449C63.8017 27.7812 65.5001 27.7812 67.1572 28.0835C68.012 28.3917 69.0207 29.1171 69.7512 30.0869C70.6138 32.4465 71.3061 35.4647 71.5223 38.5351C71.4387 38.5108 71.4387 38.5108 72.0855 39.9632C74.2943 40.3458 74.9641 40.4618 75.286 40.1802C75.4261 40.0576 75.5003 39.8596 75.6068 39.5755L75.6069 39.5752C75.7569 39.2703 75.757 39.2702 75.7995 39.1406C75.8529 38.9826 75.9091 38.7715 76.0079 38.3892C76.2242 37.5716 76.4231 36.9348 76.6814 36.3098C76.8502 35.9014 77.0277 35.5466 77.2096 35.2579C77.8437 33.5677 78.8835 32.6533 80.1568 32.3974C81.4301 32.1416 82.7434 32.5831 83.6021 33.5557C84.4608 34.5282 84.7343 35.8841 84.3197 37.1126L84.206 37.8048V50.8735C84.0059 54.0145 83.5559 57.2704 82.8641 60.479C81.9888 62.9778 80.6743 65.5831 79.026 67.9758C76.2412 71.0392 73.7957 74.7514 71.9472 78.7653C71.3269 81.259 71.114 83.384 71.17 85.5105C71.166 86.5891 71.2455 87.6854 71.4073 88.7787C69.9834 88.8206 68.5574 88.7667 67.139 88.617C66.4342 88.5063 64.2806 85.8052 63.027 83.4954C62.3201 82.0793 60.8045 81.1437 59.1465 81.1437C57.4884 81.1437 55.9729 82.0793 55.2324 83.5598C53.7944 86.0304 51.4916 88.7167 50.8388 88.7933C48.8289 89.0328 46.2605 89.0328 39.6096 88.8818L38.7248 88.8619C37.3593 88.8315 36.259 88.8099 35.2893 88.7964C35.318 87.9985 35.297 87.196 35.2109 86.4109C34.9822 84.3274 34.3272 82.6161 33.0001 81.4531C32.857 81.3272 32.785 81.2639 32.7133 81.2004C32.6407 81.1361 32.5684 81.0715 32.4228 80.9416C31.951 80.5191 31.4559 80.0657 30.9137 79.5609C30.8245 79.4779 30.5293 79.1992 30.1275 78.8199Z" fill="black"/>
<path d="M69.2284 74.5584V54.5981C69.2284 53.4033 68.2556 52.4348 67.0556 52.4348C65.8556 52.4348 64.8828 53.4033 64.8828 54.5981V74.5584C64.8828 75.7532 65.8556 76.7217 67.0556 76.7217C68.2556 76.7217 69.2284 75.7532 69.2284 74.5584Z" fill="black"/>
<path d="M57.7554 74.5511L57.6395 54.5805C57.6326 53.3886 56.6542 52.428 55.4542 52.4348C54.2542 52.4417 53.2871 53.4135 53.294 54.6054L53.4099 74.576C53.4168 75.7679 54.3952 76.7286 55.5951 76.7217C56.7951 76.7148 57.7623 75.743 57.7554 74.5511Z" fill="black"/>
<path d="M41.7061 54.6263L41.822 74.5556C41.829 75.7589 42.8074 76.7287 44.0074 76.7217C45.2074 76.7147 46.1745 75.7335 46.1675 74.5302L46.0516 54.6009C46.0446 53.3976 45.0662 52.4278 43.8662 52.4348C42.6662 52.4418 41.6991 53.423 41.7061 54.6263Z" fill="black"/>
</g>
<defs>
<filter id="filter0_d_30_112" x="0.292773" y="0.519379" width="89.3627" height="94.6047" filterUnits="userSpaceOnUse" color-interpolation-filters="sRGB">
<feFlood flood-opacity="0" result="BackgroundImageFix"/>
<feColorMatrix in="SourceAlpha" type="matrix" values="0 0 0 0 0 0 0 0 0 0 0 0 0 0 0 0 0 0 127 0" result="hardAlpha"/>
<feOffset dy="1"/>
<feGaussianBlur stdDeviation="0.4"/>
<feColorMatrix type="matrix" values="0 0 0 0 0 0 0 0 0 0 0 0 0 0 0 0 0 0 0.5 0"/>
<feBlend mode="normal" in2="BackgroundImageFix" result="effect1_dropShadow_30_112"/>
<feBlend mode="normal" in="SourceGraphic" in2="effect1_dropShadow_30_112" result="shape"/>
</filter>
</defs>
</svg>
